<?xml version="1.0" encoding="UTF-8" standalone="no"?>
<svg
   xmlns:dc="http://purl.org/dc/elements/1.1/"
   xmlns:cc="http://creativecommons.org/ns#"
   xmlns:rdf="http://www.w3.org/1999/02/22-rdf-syntax-ns#"
   xmlns:svg="http://www.w3.org/2000/svg"
   xmlns="http://www.w3.org/2000/svg"
   xmlns:sodipodi="http://sodipodi.sourceforge.net/DTD/sodipodi-0.dtd"
   xmlns:inkscape="http://www.inkscape.org/namespaces/inkscape"
   inkscape:version="1.0 (4035a4fb49, 2020-05-01)"
   height="24"
   width="24"
   sodipodi:docname="icon-twitter.svg"
   xml:space="preserve"
   viewBox="0 0 24 24"
   y="0px"
   x="0px"
   id="レイヤー_1"
   version="1.1"><metadata
   id="metadata15"><rdf:RDF><cc:Work
       rdf:about=""><dc:format>image/svg+xml</dc:format><dc:type
         rdf:resource="http://purl.org/dc/dcmitype/StillImage" /><dc:title>Page 1</dc:title></cc:Work></rdf:RDF></metadata><defs
   id="defs13" /><sodipodi:namedview
   inkscape:current-layer="レイヤー_1"
   inkscape:window-maximized="1"
   inkscape:window-y="-12"
   inkscape:window-x="-12"
   inkscape:cy="8.64324"
   inkscape:cx="11.247545"
   inkscape:zoom="27.5"
   showgrid="false"
   id="namedview11"
   inkscape:window-height="970"
   inkscape:window-width="1920"
   inkscape:pageshadow="2"
   inkscape:pageopacity="0"
   guidetolerance="10"
   gridtolerance="10"
   objecttolerance="10"
   borderopacity="1"
   bordercolor="#666666"
   pagecolor="#ffffff" />
<style
   id="style2"
   type="text/css">
	.st0{fill:#1DA1F2;}
</style>
<title
   id="title4">Page 1</title>
<desc
   id="desc6">Created with Sketch.</desc>
<path
   style="stroke-width:0.856357"
   id="path8"
   d="M 22.179651,0 H 1.79835 C 0.77072145,0 0,0.77072145 0,1.7127143 V 22.265286 c 0,0.941993 0.77072145,1.712715 1.79835,1.712715 h 20.466936 c 0.941993,0 1.79835,-0.770722 1.79835,-1.712715 V 1.7127143 C 23.978001,0.77072145 23.207279,0 22.179651,0 Z m -1.79835,7.7928502 c 0,0.1712714 0,0.3425429 0,0.5138143 0,5.6519575 -4.281786,12.1602715 -11.9890008,12.1602715 -2.3978,0 -4.6243287,-0.685085 -6.4226787,-1.883985 0.3425428,0 0.6850857,0.08563 1.0276286,0.08563 1.9696215,0 3.7679715,-0.685086 5.2237787,-1.79835 -1.8839858,0 -3.4254287,-1.284536 -3.939243,-2.99725 0.2569072,0.08564 0.5138143,0.08564 0.7707215,0.08564 0.3425428,0 0.7707214,-0.08564 1.1132643,-0.171272 -1.9696215,-0.428178 -3.4254287,-2.140893 -3.4254287,-4.1961497 0,0 0,0 0,-0.085636 0.59945,0.3425429 1.1989001,0.5138147 1.8839858,0.5138147 C 3.5110644,9.2486574 2.7403429,7.9641216 2.7403429,6.5083145 c 0,-0.7707215 0.1712715,-1.5414429 0.59945,-2.140893 2.0552572,2.5690715 5.2237788,4.2817859 8.6492071,4.4530573 0,-0.2569071 -0.08563,-0.59945 -0.08563,-0.9419929 0,-2.3121643 1.883985,-4.2817858 4.19615,-4.2817858 1.1989,0 2.312164,0.5138143 3.082886,1.3701715 0.941992,-0.1712715 1.883985,-0.5138143 2.654707,-1.0276286 -0.342543,1.0276286 -0.941993,1.79835 -1.883986,2.3978 0.856357,-0.085636 1.627079,-0.3425428 2.3978,-0.6850857 -0.428179,0.7707214 -1.113264,1.5414429 -1.969621,2.1408929 z"
   class="st0" />
</svg>
