<?xml version="1.0" encoding="UTF-8" standalone="no"?>
<svg
   xmlns:dc="http://purl.org/dc/elements/1.1/"
   xmlns:cc="http://creativecommons.org/ns#"
   xmlns:rdf="http://www.w3.org/1999/02/22-rdf-syntax-ns#"
   xmlns:svg="http://www.w3.org/2000/svg"
   xmlns="http://www.w3.org/2000/svg"
   xmlns:xlink="http://www.w3.org/1999/xlink"
   xmlns:sodipodi="http://sodipodi.sourceforge.net/DTD/sodipodi-0.dtd"
   xmlns:inkscape="http://www.inkscape.org/namespaces/inkscape"
   inkscape:version="1.0 (4035a4fb49, 2020-05-01)"
   sodipodi:docname="icon-facebook.svg"
   id="svg23"
   version="1.1"
   viewBox="0 0 24 24"
   height="24px"
   width="24px">
  <metadata
     id="metadata27">
    <rdf:RDF>
      <cc:Work
         rdf:about="">
        <dc:format>image/svg+xml</dc:format>
        <dc:type
           rdf:resource="http://purl.org/dc/dcmitype/StillImage" />
        <dc:title>アイコン｜FB</dc:title>
      </cc:Work>
    </rdf:RDF>
  </metadata>
  <sodipodi:namedview
     inkscape:current-layer="svg23"
     inkscape:window-maximized="1"
     inkscape:window-y="-12"
     inkscape:window-x="-12"
     inkscape:cy="5.482795"
     inkscape:cx="3.0613455"
     inkscape:zoom="16.041667"
     showgrid="false"
     id="namedview25"
     inkscape:window-height="970"
     inkscape:window-width="1920"
     inkscape:pageshadow="2"
     inkscape:pageopacity="0"
     guidetolerance="10"
     gridtolerance="10"
     objecttolerance="10"
     borderopacity="1"
     bordercolor="#666666"
     pagecolor="#ffffff" />
  <!-- Generator: Sketch 46.2 (44496) - http://www.bohemiancoding.com/sketch -->
  <title
     id="title2">アイコン｜FB</title>
  <desc
     id="desc4">Created with Sketch.</desc>
  <defs
     id="defs7">
    <polygon
       points="11.9951955 24 23.990382 24 23.990382 0.00943820225 11.9951955 0.00943820225 8.98876405e-06 0.00943820225 8.98876405e-06 24 11.9951955 24"
       id="path-1" />
  </defs>
  <g
     fill-rule="evenodd"
     fill="none"
     stroke-width="1"
     stroke="none"
     id="Symbols">
    <g
       transform="translate(-22.000000, -6.000000)"
       id="モジュール｜SNSシェア">
      <g
         id="アイコン｜FB">
        <g
           id="g18"
           transform="translate(22.000000, 6.000000)">
          <g
             id="g16">
            <g
               id="Group-3">
              <mask
                 fill="white"
                 id="mask-2">
                <use
                   id="use9"
                   xlink:href="#path-1" />
              </mask>
              <g
                 id="Clip-2" />
              <path
                 mask="url(#mask-2)"
                 fill="#3C5A99"
                 id="Fill-1"
                 d="M22.6663461,24 C23.3974921,24 23.990391,23.4071011 23.990391,22.6759551 L23.990391,1.33357303 C23.990391,0.602157303 23.3974921,0.00943820225 22.6663461,0.00943820225 L1.32405393,0.00943820225 C0.592638202,0.00943820225 8.98876405e-06,0.602157303 8.98876405e-06,1.33357303 L8.98876405e-06,22.6759551 C8.98876405e-06,23.4071011 0.592638202,24 1.32405393,24 L22.6663461,24 Z" />
            </g>
            <path
               fill="#FEFEFE"
               id="Fill-4"
               d="M16.6611823,24 L16.6611823,14.6164601 L19.9465202,14.6164601 L20.4383787,10.9594625 L16.6611823,10.9594625 L16.6611823,8.62463117 C16.6611823,7.56584502 16.9678126,6.84434155 18.5515324,6.84434155 L20.5714286,6.84343366 L20.5714286,3.57265423 C20.2219951,3.52816742 19.0230309,3.42857143 17.6281378,3.42857143 C14.7159077,3.42857143 12.7222427,5.13277952 12.7222427,8.26256299 L12.7222427,10.9594625 L9.42857143,10.9594625 L9.42857143,14.6164601 L12.7222427,14.6164601 L12.7222427,24 L16.6611823,24 Z" />
          </g>
        </g>
      </g>
    </g>
  </g>
</svg>
