<?xml version="1.0" encoding="UTF-8" standalone="no"?>
<svg
   xmlns:dc="http://purl.org/dc/elements/1.1/"
   xmlns:cc="http://creativecommons.org/ns#"
   xmlns:rdf="http://www.w3.org/1999/02/22-rdf-syntax-ns#"
   xmlns:svg="http://www.w3.org/2000/svg"
   xmlns="http://www.w3.org/2000/svg"
   xmlns:sodipodi="http://sodipodi.sourceforge.net/DTD/sodipodi-0.dtd"
   xmlns:inkscape="http://www.inkscape.org/namespaces/inkscape"
   inkscape:version="1.0 (4035a4fb49, 2020-05-01)"
   sodipodi:docname="icon-linkedin.svg"
   id="svg12"
   version="1.1"
   viewBox="0 0 24 24"
   height="24"
   width="24">
  <metadata
     id="metadata16">
    <rdf:RDF>
      <cc:Work
         rdf:about="">
        <dc:format>image/svg+xml</dc:format>
        <dc:type
           rdf:resource="http://purl.org/dc/dcmitype/StillImage" />
        <dc:title>Page 1</dc:title>
      </cc:Work>
    </rdf:RDF>
  </metadata>
  <sodipodi:namedview
     inkscape:current-layer="svg12"
     inkscape:window-maximized="1"
     inkscape:window-y="-12"
     inkscape:window-x="-12"
     inkscape:cy="16.909091"
     inkscape:cx="14"
     inkscape:zoom="27.5"
     showgrid="false"
     id="namedview14"
     inkscape:window-height="970"
     inkscape:window-width="1920"
     inkscape:pageshadow="2"
     inkscape:pageopacity="0"
     guidetolerance="10"
     gridtolerance="10"
     objecttolerance="10"
     borderopacity="1"
     bordercolor="#666666"
     pagecolor="#ffffff" />
  <!-- Generator: Sketch 46.2 (44496) - http://www.bohemiancoding.com/sketch -->
  <title
     id="title2">Page 1</title>
  <desc
     id="desc4">Created with Sketch.</desc>
  <defs
     id="defs6" />
  <g
     transform="scale(0.85714286)"
     fill-rule="evenodd"
     fill="none"
     stroke-width="1"
     stroke="none"
     id="Symbols">
    <g
       id="Page-1">
      <path
         fill="#0073b2"
         id="Fill-1"
         d="M 25.927445,0 H 2.0667213 C 0.92651491,0 0,0.90377778 0,2.0181389 V 25.979528 C 0,27.094861 0.92651491,28 2.0667213,28 H 25.927445 C 27.069596,28 28,27.094861 28,25.979528 V 2.0181389 C 28,0.90377778 27.069596,0 25.927445,0" />
      <path
         fill="#ffffff"
         id="Fill-4"
         d="m 11.074977,24 h 4.141899 v -6.608736 c 0,-1.742579 0.330296,-3.430338 2.487119,-3.430338 2.125384,0 2.153912,1.992574 2.153912,3.542505 V 24 H 24 v -7.327812 c 0,-3.596937 -0.77509,-6.363796 -4.972297,-6.363796 -2.016321,0 -3.368556,1.107482 -3.921637,2.157618 h -0.05512 V 10.640812 H 11.074977 Z M 6.4038657,4 C 7.728932,4 8.8057909,5.0787115 8.8057909,6.4066406 8.8057909,7.7355417 7.728932,8.814642 6.4038657,8.814642 5.0753064,8.814642 4,7.7355417 4,6.4066406 4,5.0787115 5.0753064,4 6.4038657,4 Z M 4.3302962,24 H 8.4753006 V 10.640812 H 4.3302962 Z" />
    </g>
  </g>
</svg>
